<?xml version="1.0" encoding="UTF-8"?>
<svg id="Layer_1" data-name="Layer 1" xmlns="http://www.w3.org/2000/svg" viewBox="0 0 192 192">
  <defs>
    <style>
      .cls-1 {
        fill: #0a0a0a;
        stroke-width: 0px;
      }
    </style>
  </defs>
  <path class="cls-1" d="M182.4,108c2.3-3.2,4.7-6.5,4.7-10s-2.4-6.7-4.7-10c-1.9-2.7-4-5.5-4.6-8.5-.7-3.1-.1-6.6.5-10,.7-4,1.4-7.8,0-10.7-1.5-3-4.9-4.9-8.5-6.8-3-1.6-6-3.3-8-5.7-1.9-2.4-2.9-5.8-3.8-9.1-1.1-3.9-2.2-7.6-4.8-9.7-2.6-2.1-6.4-2.3-10.5-2.5-3.4-.2-6.9-.4-9.8-1.7-2.8-1.3-5.1-3.9-7.3-6.5-2.6-3-5.3-6-8.6-6.8-.5-.1-1.1-.2-1.7-.2-2.7,0-5.6,1.2-8.7,2.5-3.2,1.3-6.5,2.7-9.7,2.7s-6.5-1.4-9.7-2.7c-3.1-1.3-6-2.5-8.7-2.5s-1.2,0-1.7.2c-3.3.7-6,3.8-8.6,6.8-2.2,2.5-4.5,5.1-7.3,6.5-2.8,1.4-6.4,1.5-9.8,1.7-4.1.2-7.9.4-10.5,2.5-2.6,2.1-3.6,5.8-4.8,9.7-.9,3.3-1.9,6.7-3.8,9.1-1.9,2.4-5,4.1-8,5.7-3.6,2-7,3.8-8.5,6.8-1.4,2.9-.8,6.7,0,10.7.6,3.4,1.2,6.9.5,10-.7,3-2.7,5.8-4.6,8.5-2.3,3.2-4.7,6.5-4.7,10s2.4,6.7,4.7,10c1.9,2.7,4,5.5,4.6,8.5.7,3.1.1,6.6-.5,10-.7,4-1.4,7.8,0,10.7,1.5,3,4.9,4.9,8.5,6.8,3,1.6,6,3.3,8,5.7,1.9,2.4,2.9,5.8,3.8,9.1,1.1,3.9,2.2,7.6,4.8,9.7,2.6,2.1,6.4,2.3,10.5,2.5,3.4.2,6.9.4,9.8,1.7,2.8,1.3,5.1,3.9,7.3,6.5,2.6,3,5.3,6,8.6,6.8.5.1,1.1.2,1.7.2,2.7,0,5.6-1.2,8.7-2.5,3.2-1.3,6.5-2.7,9.7-2.7s6.5,1.4,9.7,2.7c3.1,1.3,6,2.5,8.7,2.5s1.2,0,1.7-.2c3.3-.7,6-3.8,8.6-6.8,2.2-2.5,4.5-5.1,7.3-6.5,2.8-1.4,6.4-1.5,9.8-1.7,4.1-.2,7.9-.4,10.5-2.5,2.6-2.1,3.6-5.8,4.8-9.7.9-3.3,1.9-6.7,3.8-9.1,1.9-2.4,5-4.1,8-5.7,3.6-2,7-3.8,8.5-6.8,1.4-2.9.8-6.7,0-10.7-.6-3.4-1.2-6.9-.5-10,.7-3,2.7-5.8,4.6-8.5ZM162.4,112.9c-1.2,5.2,2.5,12,.3,16.7-2.3,4.7-10,6.1-13.2,10.2-3.3,4.1-2.9,11.9-7,15.2-4.1,3.3-11.6,1.2-16.3,3.4-4.7,2.2-7.7,9.5-12.9,10.6-.5.1-1,.2-1.5.2-4.7,0-9.9-4.2-14.7-4.2s-10,4.2-14.7,4.2-1,0-1.5-.2c-5.2-1.2-8.2-8.4-12.9-10.6-4.7-2.3-12.3-.2-16.3-3.4-4.1-3.3-3.7-11.1-7-15.2-3.3-4.1-11-5.4-13.2-10.2-2.2-4.7,1.5-11.5.3-16.7-1.1-5-7.5-9.6-7.5-14.9s6.4-9.9,7.5-14.9c1.2-5.2-2.5-12-.3-16.7,2.3-4.7,10-6.1,13.2-10.2,3.3-4.1,2.9-11.9,7-15.2,4.1-3.3,11.6-1.2,16.3-3.4,4.7-2.2,7.7-9.5,12.9-10.6.5-.1,1-.2,1.5-.2,4.7,0,9.9,4.2,14.7,4.2s10-4.2,14.7-4.2,1,0,1.5.2c5.2,1.2,8.2,8.4,12.9,10.6,4.7,2.3,12.3.2,16.3,3.4,4.1,3.3,3.7,11.1,7,15.2,3.3,4.1,11,5.4,13.2,10.2,2.2,4.7-1.5,11.5-.3,16.7,1.1,5,7.5,9.6,7.5,14.9s-6.4,9.9-7.5,14.9Z"/>
</svg>